<?xml version="1.0" encoding="UTF-8" standalone="no"?>
<!DOCTYPE svg PUBLIC "-//W3C//DTD SVG 1.1//EN"
 "http://www.w3.org/Graphics/SVG/1.1/DTD/svg11.dtd">
<!-- Generated by graphviz version 2.42.4 (0)
 -->
<!-- Title: QualityModel Pages: 1 -->
<svg width="625pt" height="840pt"
 viewBox="2.16 2.16 623.32 838.32" xmlns="http://www.w3.org/2000/svg" xmlns:xlink="http://www.w3.org/1999/xlink">
<g id="graph0" class="graph" transform="scale(1 1) rotate(0) translate(12.24 828.24)">
<title>QualityModel</title>
<!-- Root&#45;&gt;Usability -->
<g id="edge1" class="edge">
<title>Root&#45;&gt;Usability</title>
<path fill="none" stroke="#7191aa" stroke-width="1.15" d="M92,-382.36C92,-448.46 92,-616 92,-616 92,-616 179.27,-616 241.83,-616"/>
</g>
<!-- Root&#45;&gt;Security -->
<g id="edge2" class="edge">
<title>Root&#45;&gt;Security</title>
<path fill="none" stroke="#7191aa" stroke-width="1.15" d="M183.16,-373C202.93,-373 223.39,-373 241.72,-373"/>
</g>
<!-- Root&#45;&gt;Privacy -->
<g id="edge3" class="edge">
<title>Root&#45;&gt;Privacy</title>
<path fill="none" stroke="#7191aa" stroke-width="1.15" d="M183.28,-339C241.15,-339 305,-339 305,-339 305,-339 305,-330.79 305,-322.32"/>
</g>
<!-- Root&#45;&gt;Applicability -->
<g id="edge4" class="edge">
<title>Root&#45;&gt;Applicability</title>
<path fill="none" stroke="#7191aa" stroke-width="1.15" d="M92,-329.61C92,-268.42 92,-122 92,-122 92,-122 179.27,-122 241.83,-122"/>
</g>
<!-- Usability&#45;&gt;MemorizationEffortlessness -->
<g id="edge5" class="edge">
<title>Usability&#45;&gt;MemorizationEffortlessness</title>
<path fill="none" stroke="#7191aa" stroke-width="1.15" d="M366,-616 L394.32,-616 L394.32,-798 L425,-798"/>
</g>
<!-- Usability&#45;&gt;EaseOfUse -->
<g id="edge6" class="edge">
<title>Usability&#45;&gt;EaseOfUse</title>
<path fill="none" stroke="#7191aa" stroke-width="1.15" d="M366,-616 L394.32,-616 L394.32,-746 L439,-746"/>
</g>
<!-- Usability&#45;&gt;Accuracy -->
<g id="edge7" class="edge">
<title>Usability&#45;&gt;Accuracy</title>
<path fill="none" stroke="#7191aa" stroke-width="1.15" d="M366,-616 L394.32,-616 L394.32,-694 L439,-694"/>
</g>
<!-- Usability&#45;&gt;Availability -->
<g id="edge8" class="edge">
<title>Usability&#45;&gt;Availability</title>
<path fill="none" stroke="#7191aa" stroke-width="1.15" d="M366,-616 L394.32,-616 L394.32,-642 L439,-642"/>
</g>
<!-- Usability&#45;&gt;Accessibility -->
<g id="edge9" class="edge">
<title>Usability&#45;&gt;Accessibility</title>
<path fill="none" stroke="#7191aa" stroke-width="1.15" d="M366,-616 L394.32,-616 L394.32,-590 L439,-590"/>
</g>
<!-- Usability&#45;&gt;EaseOfEnrollment -->
<g id="edge10" class="edge">
<title>Usability&#45;&gt;EaseOfEnrollment</title>
<path fill="none" stroke="#7191aa" stroke-width="1.15" d="M366,-616 L394.32,-616 L394.32,-538 L439,-538"/>
</g>
<!-- Usability&#45;&gt;EaseOfRecovery -->
<g id="edge11" class="edge">
<title>Usability&#45;&gt;EaseOfRecovery</title>
<path fill="none" stroke="#7191aa" stroke-width="1.15" d="M366,-616 L394.32,-616 L394.32,-486 L439,-486"/>
</g>
<!-- Security&#45;&gt;ThreatSensitivity -->
<g id="edge12" class="edge">
<title>Security&#45;&gt;ThreatSensitivity</title>
<path fill="none" stroke="#7191aa" stroke-width="1.15" d="M366,-382 L401.04,-382 L401.04,-434 L439,-434"/>
</g>
<!-- Security&#45;&gt;ImpairmentRisks -->
<g id="edge13" class="edge">
<title>Security&#45;&gt;ImpairmentRisks</title>
<path fill="none" stroke="#7191aa" stroke-width="1.15" d="M366,-382 L401.04,-382 L401.04,-382 L439,-382"/>
</g>
<!-- Privacy&#45;&gt;Anonymity -->
<g id="edge14" class="edge">
<title>Privacy&#45;&gt;Anonymity</title>
<path fill="none" stroke="#7191aa" stroke-width="1.15" d="M366,-304 L401.04,-304 L401.04,-330 L439,-330"/>
</g>
<!-- Privacy&#45;&gt;Unlinkability -->
<g id="edge15" class="edge">
<title>Privacy&#45;&gt;Unlinkability</title>
<path fill="none" stroke="#7191aa" stroke-width="1.15" d="M366,-304 L401.04,-304 L401.04,-278 L439,-278"/>
</g>
<!-- Privacy&#45;&gt;ThirdPartyExposure -->
<g id="edge16" class="edge">
<title>Privacy&#45;&gt;ThirdPartyExposure</title>
<path fill="none" stroke="#7191aa" stroke-width="1.15" d="M366,-304 L401.04,-304 L401.04,-226 L439,-226"/>
</g>
<!-- Applicability&#45;&gt;StructuralComplexity -->
<g id="edge17" class="edge">
<title>Applicability&#45;&gt;StructuralComplexity</title>
<path fill="none" stroke="#7191aa" stroke-width="1.15" d="M366,-122 L400.56,-122 L400.56,-174 L439,-174"/>
</g>
<!-- Applicability&#45;&gt;BehavioralComplexity -->
<g id="edge18" class="edge">
<title>Applicability&#45;&gt;BehavioralComplexity</title>
<path fill="none" stroke="#7191aa" stroke-width="1.15" d="M366,-122 L400.56,-122 L400.56,-122 L439,-122"/>
</g>
<!-- Applicability&#45;&gt;OperationalComplexity -->
<g id="edge19" class="edge">
<title>Applicability&#45;&gt;OperationalComplexity</title>
<path fill="none" stroke="#7191aa" stroke-width="1.15" d="M366,-122 L400.56,-122 L400.56,-70 L438,-70"/>
</g>
<!-- Applicability&#45;&gt;CognitiveComplexity -->
<g id="edge20" class="edge">
<title>Applicability&#45;&gt;CognitiveComplexity</title>
<path fill="none" stroke="#7191aa" stroke-width="1.15" d="M366,-122 L400.56,-122 L400.56,-18 L439,-18"/>
</g>
<!-- Root -->
<g id="node1" class="node">
<title>Root</title>
<path fill="#123b5d" stroke="#123b5d" stroke-width="1.5" d="M171,-382C171,-382 12,-382 12,-382 6,-382 0,-376 0,-370 0,-370 0,-342 0,-342 0,-336 6,-330 12,-330 12,-330 171,-330 171,-330 177,-330 183,-336 183,-342 183,-342 183,-370 183,-370 183,-376 177,-382 171,-382"/>
<text text-anchor="middle" x="91.5" y="-359.6" font-family="DejaVu Sans" font-size="13.00" fill="white">Authentication Solution</text>
<text text-anchor="middle" x="91.5" y="-345.6" font-family="DejaVu Sans" font-size="13.00" fill="white">Quality Model</text>
</g>
<!-- Usability -->
<g id="node2" class="node">
<title>Usability</title>
<path fill="#dceeff" stroke="#1769aa" stroke-width="1.3" d="M354,-634C354,-634 254,-634 254,-634 248,-634 242,-628 242,-622 242,-622 242,-610 242,-610 242,-604 248,-598 254,-598 254,-598 354,-598 354,-598 360,-598 366,-604 366,-610 366,-610 366,-622 366,-622 366,-628 360,-634 354,-634"/>
<text text-anchor="middle" x="304" y="-613.6" font-family="DejaVu Sans" font-size="10.50" fill="#183247">Usability</text>
</g>
<!-- Security -->
<g id="node3" class="node">
<title>Security</title>
<path fill="#dceeff" stroke="#1769aa" stroke-width="1.5" stroke-dasharray="5,2" d="M354,-400C354,-400 254,-400 254,-400 248,-400 242,-394 242,-388 242,-388 242,-376 242,-376 242,-370 248,-364 254,-364 254,-364 354,-364 354,-364 360,-364 366,-370 366,-376 366,-376 366,-388 366,-388 366,-394 360,-400 354,-400"/>
<text text-anchor="middle" x="304" y="-379.6" font-family="DejaVu Sans" font-size="10.50" fill="#183247">Security</text>
</g>
<!-- Privacy -->
<g id="node4" class="node">
<title>Privacy</title>
<path fill="#dceeff" stroke="#1769aa" stroke-width="1.3" d="M354,-322C354,-322 254,-322 254,-322 248,-322 242,-316 242,-310 242,-310 242,-298 242,-298 242,-292 248,-286 254,-286 254,-286 354,-286 354,-286 360,-286 366,-292 366,-298 366,-298 366,-310 366,-310 366,-316 360,-322 354,-322"/>
<text text-anchor="middle" x="304" y="-301.6" font-family="DejaVu Sans" font-size="10.50" fill="#183247">Privacy</text>
</g>
<!-- Applicability -->
<g id="node5" class="node">
<title>Applicability</title>
<path fill="#dceeff" stroke="#1769aa" stroke-width="1.3" d="M354,-140C354,-140 254,-140 254,-140 248,-140 242,-134 242,-128 242,-128 242,-116 242,-116 242,-110 248,-104 254,-104 254,-104 354,-104 354,-104 360,-104 366,-110 366,-116 366,-116 366,-128 366,-128 366,-134 360,-140 354,-140"/>
<text text-anchor="middle" x="304" y="-119.6" font-family="DejaVu Sans" font-size="10.50" fill="#183247">Applicability</text>
</g>
<!-- MemorizationEffortlessness -->
<g id="node6" class="node">
<title>MemorizationEffortlessness</title>
<path fill="white" stroke="#7f95a8" stroke-width="1.3" stroke-dasharray="5,2" d="M589,-816C589,-816 437,-816 437,-816 431,-816 425,-810 425,-804 425,-804 425,-792 425,-792 425,-786 431,-780 437,-780 437,-780 589,-780 589,-780 595,-780 601,-786 601,-792 601,-792 601,-804 601,-804 601,-810 595,-816 589,-816"/>
<text text-anchor="middle" x="513" y="-795.6" font-family="DejaVu Sans" font-size="10.50" fill="#183247">Memorization effortlessness</text>
</g>
<!-- EaseOfUse -->
<g id="node7" class="node">
<title>EaseOfUse</title>
<path fill="white" stroke="#7f95a8" stroke-width="1.3" stroke-dasharray="5,2" d="M575,-764C575,-764 451,-764 451,-764 445,-764 439,-758 439,-752 439,-752 439,-740 439,-740 439,-734 445,-728 451,-728 451,-728 575,-728 575,-728 581,-728 587,-734 587,-740 587,-740 587,-752 587,-752 587,-758 581,-764 575,-764"/>
<text text-anchor="middle" x="513" y="-743.6" font-family="DejaVu Sans" font-size="10.50" fill="#183247">Ease of use</text>
</g>
<!-- Accuracy -->
<g id="node8" class="node">
<title>Accuracy</title>
<path fill="white" stroke="#7f95a8" stroke-width="1.3" stroke-dasharray="5,2" d="M575,-712C575,-712 451,-712 451,-712 445,-712 439,-706 439,-700 439,-700 439,-688 439,-688 439,-682 445,-676 451,-676 451,-676 575,-676 575,-676 581,-676 587,-682 587,-688 587,-688 587,-700 587,-700 587,-706 581,-712 575,-712"/>
<text text-anchor="middle" x="513" y="-691.6" font-family="DejaVu Sans" font-size="10.50" fill="#183247">Accuracy</text>
</g>
<!-- Availability -->
<g id="node9" class="node">
<title>Availability</title>
<path fill="white" stroke="#7f95a8" stroke-width="1.3" stroke-dasharray="5,2" d="M575,-660C575,-660 451,-660 451,-660 445,-660 439,-654 439,-648 439,-648 439,-636 439,-636 439,-630 445,-624 451,-624 451,-624 575,-624 575,-624 581,-624 587,-630 587,-636 587,-636 587,-648 587,-648 587,-654 581,-660 575,-660"/>
<text text-anchor="middle" x="513" y="-639.6" font-family="DejaVu Sans" font-size="10.50" fill="#183247">Availability</text>
</g>
<!-- Accessibility -->
<g id="node10" class="node">
<title>Accessibility</title>
<path fill="white" stroke="#7f95a8" stroke-width="1.3" stroke-dasharray="5,2" d="M575,-608C575,-608 451,-608 451,-608 445,-608 439,-602 439,-596 439,-596 439,-584 439,-584 439,-578 445,-572 451,-572 451,-572 575,-572 575,-572 581,-572 587,-578 587,-584 587,-584 587,-596 587,-596 587,-602 581,-608 575,-608"/>
<text text-anchor="middle" x="513" y="-587.6" font-family="DejaVu Sans" font-size="10.50" fill="#183247">Accessibility</text>
</g>
<!-- EaseOfEnrollment -->
<g id="node11" class="node">
<title>EaseOfEnrollment</title>
<path fill="white" stroke="#7f95a8" stroke-width="1.05" d="M575,-556C575,-556 451,-556 451,-556 445,-556 439,-550 439,-544 439,-544 439,-532 439,-532 439,-526 445,-520 451,-520 451,-520 575,-520 575,-520 581,-520 587,-526 587,-532 587,-532 587,-544 587,-544 587,-550 581,-556 575,-556"/>
<text text-anchor="middle" x="513" y="-535.6" font-family="DejaVu Sans" font-size="10.50" fill="#183247">Ease of enrollment</text>
</g>
<!-- EaseOfRecovery -->
<g id="node12" class="node">
<title>EaseOfRecovery</title>
<path fill="white" stroke="#7f95a8" stroke-width="1.05" d="M575,-504C575,-504 451,-504 451,-504 445,-504 439,-498 439,-492 439,-492 439,-480 439,-480 439,-474 445,-468 451,-468 451,-468 575,-468 575,-468 581,-468 587,-474 587,-480 587,-480 587,-492 587,-492 587,-498 581,-504 575,-504"/>
<text text-anchor="middle" x="513" y="-483.6" font-family="DejaVu Sans" font-size="10.50" fill="#183247">Ease of recovery</text>
</g>
<!-- ThreatSensitivity -->
<g id="node13" class="node">
<title>ThreatSensitivity</title>
<path fill="white" stroke="#7f95a8" stroke-width="1.3" stroke-dasharray="5,2" d="M575,-452C575,-452 451,-452 451,-452 445,-452 439,-446 439,-440 439,-440 439,-428 439,-428 439,-422 445,-416 451,-416 451,-416 575,-416 575,-416 581,-416 587,-422 587,-428 587,-428 587,-440 587,-440 587,-446 581,-452 575,-452"/>
<text text-anchor="middle" x="513" y="-431.6" font-family="DejaVu Sans" font-size="10.50" fill="#183247">Threat sensitivity</text>
</g>
<!-- ImpairmentRisks -->
<g id="node14" class="node">
<title>ImpairmentRisks</title>
<path fill="white" stroke="#7f95a8" stroke-width="1.3" stroke-dasharray="5,2" d="M575,-400C575,-400 451,-400 451,-400 445,-400 439,-394 439,-388 439,-388 439,-376 439,-376 439,-370 445,-364 451,-364 451,-364 575,-364 575,-364 581,-364 587,-370 587,-376 587,-376 587,-388 587,-388 587,-394 581,-400 575,-400"/>
<text text-anchor="middle" x="513" y="-379.6" font-family="DejaVu Sans" font-size="10.50" fill="#183247">Impairment risks</text>
</g>
<!-- Anonymity -->
<g id="node15" class="node">
<title>Anonymity</title>
<path fill="white" stroke="#7f95a8" stroke-width="1.05" d="M575,-348C575,-348 451,-348 451,-348 445,-348 439,-342 439,-336 439,-336 439,-324 439,-324 439,-318 445,-312 451,-312 451,-312 575,-312 575,-312 581,-312 587,-318 587,-324 587,-324 587,-336 587,-336 587,-342 581,-348 575,-348"/>
<text text-anchor="middle" x="513" y="-327.6" font-family="DejaVu Sans" font-size="10.50" fill="#183247">Anonymity</text>
</g>
<!-- Unlinkability -->
<g id="node16" class="node">
<title>Unlinkability</title>
<path fill="white" stroke="#7f95a8" stroke-width="1.05" d="M575,-296C575,-296 451,-296 451,-296 445,-296 439,-290 439,-284 439,-284 439,-272 439,-272 439,-266 445,-260 451,-260 451,-260 575,-260 575,-260 581,-260 587,-266 587,-272 587,-272 587,-284 587,-284 587,-290 581,-296 575,-296"/>
<text text-anchor="middle" x="513" y="-275.6" font-family="DejaVu Sans" font-size="10.50" fill="#183247">Unlinkability</text>
</g>
<!-- ThirdPartyExposure -->
<g id="node17" class="node">
<title>ThirdPartyExposure</title>
<path fill="white" stroke="#7f95a8" stroke-width="1.05" d="M575,-244C575,-244 451,-244 451,-244 445,-244 439,-238 439,-232 439,-232 439,-220 439,-220 439,-214 445,-208 451,-208 451,-208 575,-208 575,-208 581,-208 587,-214 587,-220 587,-220 587,-232 587,-232 587,-238 581,-244 575,-244"/>
<text text-anchor="middle" x="513" y="-223.6" font-family="DejaVu Sans" font-size="10.50" fill="#183247">Third party exposure</text>
</g>
<!-- StructuralComplexity -->
<g id="node18" class="node">
<title>StructuralComplexity</title>
<path fill="white" stroke="#7f95a8" stroke-width="1.05" d="M575,-192C575,-192 451,-192 451,-192 445,-192 439,-186 439,-180 439,-180 439,-168 439,-168 439,-162 445,-156 451,-156 451,-156 575,-156 575,-156 581,-156 587,-162 587,-168 587,-168 587,-180 587,-180 587,-186 581,-192 575,-192"/>
<text text-anchor="middle" x="513" y="-171.6" font-family="DejaVu Sans" font-size="10.50" fill="#183247">Structural complexity</text>
</g>
<!-- BehavioralComplexity -->
<g id="node19" class="node">
<title>BehavioralComplexity</title>
<path fill="white" stroke="#7f95a8" stroke-width="1.05" d="M575,-140C575,-140 451,-140 451,-140 445,-140 439,-134 439,-128 439,-128 439,-116 439,-116 439,-110 445,-104 451,-104 451,-104 575,-104 575,-104 581,-104 587,-110 587,-116 587,-116 587,-128 587,-128 587,-134 581,-140 575,-140"/>
<text text-anchor="middle" x="513" y="-119.6" font-family="DejaVu Sans" font-size="10.50" fill="#183247">Behavioral complexity</text>
</g>
<!-- OperationalComplexity -->
<g id="node20" class="node">
<title>OperationalComplexity</title>
<path fill="white" stroke="#7f95a8" stroke-width="1.05" d="M576,-88C576,-88 450,-88 450,-88 444,-88 438,-82 438,-76 438,-76 438,-64 438,-64 438,-58 444,-52 450,-52 450,-52 576,-52 576,-52 582,-52 588,-58 588,-64 588,-64 588,-76 588,-76 588,-82 582,-88 576,-88"/>
<text text-anchor="middle" x="513" y="-67.6" font-family="DejaVu Sans" font-size="10.50" fill="#183247">Operational complexity</text>
</g>
<!-- CognitiveComplexity -->
<g id="node21" class="node">
<title>CognitiveComplexity</title>
<path fill="white" stroke="#7f95a8" stroke-width="1.05" d="M575,-36C575,-36 451,-36 451,-36 445,-36 439,-30 439,-24 439,-24 439,-12 439,-12 439,-6 445,0 451,0 451,0 575,0 575,0 581,0 587,-6 587,-12 587,-12 587,-24 587,-24 587,-30 581,-36 575,-36"/>
<text text-anchor="middle" x="513" y="-15.6" font-family="DejaVu Sans" font-size="10.50" fill="#183247">Cognitive complexity</text>
</g>
</g>
</svg>
